Newsreader72pt-Italic.ufo
<glyph name="plus" format="2">
  <advance width="1150"/>
  <unicode hex="002B"/>
  <outline>
    <contour>
      <point x="415.0" y="101.0" type="line"/>
      <point x="483.0" y="101.0" type="line"/>
      <point x="735.0" y="923.0" type="line"/>
      <point x="667.0" y="923.0" type="line"/>
    </contour>
    <contour>
      <point x="174.0" y="545.0" type="line"/>
      <point x="154.0" y="479.0" type="line"/>
      <point x="976.0" y="479.0" type="line"/>
      <point x="996.0" y="545.0" type="line"/>
    </contour>
  </outline>
</glyph>
<glyph name="semicolon" format="2">
  <advance width="541"/>
  <unicode hex="003B"/>
  <outline>
    <contour>
      <point x="-122.0" y="-296.0" type="curve"/>
      <point x="-106.0" y="-321.0" type="line"/>
      <point x="162.0" y="-158.0"/>
      <point x="285.0" y="21.0"/>
      <point x="285.0" y="140.0" type="curve" smooth="yes"/>
      <point x="285.0" y="206.0"/>
      <point x="240.0" y="247.0"/>
      <point x="171.0" y="247.0" type="curve" smooth="yes"/>
      <point x="81.0" y="247.0"/>
      <point x="17.0" y="177.0"/>
      <point x="17.0" y="113.0" type="curve" smooth="yes"/>
      <point x="17.0" y="82.0"/>
      <point x="109.0" y="55.0"/>
      <point x="109.0" y="-17.0" type="curve" smooth="yes"/>
      <point x="109.0" y="-84.0"/>
      <point x="42.0" y="-187.0"/>
    </contour>
    <contour>
      <point x="410.0" y="1042.0" type="curve" smooth="yes"/>
      <point x="318.0" y="1042.0"/>
      <point x="247.0" y="970.0"/>
      <point x="247.0" y="879.0" type="curve" smooth="yes"/>
      <point x="247.0" y="811.0"/>
      <point x="294.0" y="765.0"/>
      <point x="366.0" y="765.0" type="curve" smooth="yes"/>
      <point x="458.0" y="765.0"/>
      <point x="529.0" y="837.0"/>
      <point x="529.0" y="928.0" type="curve" smooth="yes"/>
      <point x="529.0" y="996.0"/>
      <point x="482.0" y="1042.0"/>
    </contour>
  </outline>
</glyph>
<glyph name="question" format="2">
  <advance width="971"/>
  <unicode hex="003F"/>
  <outline>
    <contour>
      <point x="311.0" y="259.0" type="curve" smooth="yes"/>
      <point x="219.0" y="259.0"/>
      <point x="148.0" y="187.0"/>
      <point x="148.0" y="95.0" type="curve" smooth="yes"/>
      <point x="148.0" y="27.0"/>
      <point x="195.0" y="-19.0"/>
      <point x="267.0" y="-19.0" type="curve" smooth="yes"/>
      <point x="359.0" y="-19.0"/>
      <point x="430.0" y="53.0"/>
      <point x="430.0" y="144.0" type="curve" smooth="yes"/>
      <point x="430.0" y="213.0"/>
      <point x="383.0" y="259.0"/>
    </contour>
    <contour>
      <point x="571.0" y="1450.0" type="curve" smooth="yes"/>
      <point x="400.0" y="1450.0"/>
      <point x="307.0" y="1396.0"/>
      <point x="307.0" y="1324.0" type="curve" smooth="yes"/>
      <point x="307.0" y="1283.0"/>
      <point x="335.0" y="1255.0"/>
      <point x="369.0" y="1255.0" type="curve" smooth="yes"/>
      <point x="387.0" y="1255.0"/>
      <point x="504.0" y="1366.0"/>
      <point x="679.0" y="1366.0" type="curve" smooth="yes"/>
      <point x="839.0" y="1366.0"/>
      <point x="930.0" y="1269.0"/>
      <point x="930.0" y="1100.0" type="curve" smooth="yes"/>
      <point x="930.0" y="878.0"/>
      <point x="783.0" y="784.0"/>
      <point x="441.0" y="843.0" type="curve"/>
      <point x="351.0" y="463.0" type="line"/>
      <point x="383.0" y="463.0" type="line"/>
      <point x="527.0" y="804.0" type="line"/>
      <point x="446.0" y="687.0" type="line"/>
      <point x="823.0" y="627.0"/>
      <point x="1015.0" y="759.0"/>
      <point x="1015.0" y="1032.0" type="curve" smooth="yes"/>
      <point x="1015.0" y="1239.0"/>
      <point x="846.0" y="1450.0"/>
    </contour>
  </outline>
</glyph>
<glyph name="M" format="2">
  <advance width="1967"/>
  <unicode hex="004D"/>
  <anchor x="1225.0" y="1430.0" name="UCtop"/>
  <anchor x="787.0" y="0" name="bottom"/>
  <outline>
    <contour>
      <point x="606.0" y="1369.0" type="line"/>
      <point x="571.0" y="1328.0" type="line"/>
      <point x="739.0" y="-20.0" type="line"/>
      <point x="771.0" y="-20.0" type="line"/>
      <point x="1771.0" y="1399.0" type="line"/>
      <point x="1780.0" y="1430.0" type="line"/>
      <point x="1733.0" y="1430.0" type="line"/>
      <point x="859.0" y="192.0" type="line"/>
      <point x="900.0" y="192.0" type="line"/>
      <point x="749.0" y="1430.0" type="line"/>
      <point x="391.0" y="1430.0" type="line"/>
      <point x="386.0" y="1410.0" type="line"/>
      <point x="540.0" y="1345.0" type="line"/>
      <point x="81.0" y="62.0" type="line"/>
      <point x="-102.0" y="20.0" type="line"/>
      <point x="-107.0" y="0.0" type="line"/>
      <point x="309.0" y="0.0" type="line"/>
      <point x="315.0" y="20.0" type="line"/>
      <point x="139.0" y="62.0" type="line"/>
    </contour>
    <contour>
      <point x="1733.0" y="1430.0" type="line"/>
      <point x="1426.0" y="62.0" type="line"/>
      <point x="1243.0" y="20.0" type="line"/>
      <point x="1237.0" y="0.0" type="line"/>
      <point x="1772.0" y="0.0" type="line"/>
      <point x="1778.0" y="20.0" type="line"/>
      <point x="1621.0" y="62.0" type="line"/>
      <point x="1910.0" y="1369.0" type="line"/>
      <point x="2111.0" y="1410.0" type="line"/>
      <point x="2116.0" y="1430.0" type="line"/>
    </contour>
  </outline>
</glyph>
<glyph name="asciicircum" format="2">
  <advance width="1150"/>
  <unicode hex="005E"/>
  <outline>
    <contour>
      <point x="838.0" y="1367.0" type="line"/>
      <point x="952.0" y="662.0" type="line"/>
      <point x="1016.0" y="662.0" type="line"/>
      <point x="889.0" y="1430.0" type="line"/>
      <point x="827.0" y="1430.0" type="line"/>
      <point x="232.0" y="662.0" type="line"/>
      <point x="312.0" y="662.0" type="line"/>
      <point x="853.0" y="1367.0" type="line"/>
    </contour>
  </outline>
</glyph>
<glyph name="b" format="2">
  <advance width="973"/>
  <unicode hex="0062"/>
  <anchor x="772.0" y="1430.0" name="UCtop"/>
  <anchor x="253.0" y="0" name="bottom"/>
  <outline>
    <contour>
      <point x="206" y="221" type="curve" smooth="yes"/>
      <point x="322" y="614" type="line" smooth="yes"/>
      <point x="342" y="681"/>
      <point x="505" y="928"/>
      <point x="670" y="928" type="curve" smooth="yes"/>
      <point x="742" y="928"/>
      <point x="777" y="875"/>
      <point x="777" y="793" type="curve" smooth="yes"/>
      <point x="777.0" y="447.0"/>
      <point x="502.0" y="16.0"/>
      <point x="298" y="16" type="curve" smooth="yes"/>
      <point x="228" y="16"/>
      <point x="192" y="60.0"/>
      <point x="192" y="134" type="curve" smooth="yes"/>
      <point x="192" y="161"/>
      <point x="197" y="191"/>
    </contour>
    <contour>
      <point x="378" y="1303" type="curve"/>
      <point x="80" y="327" type="line" smooth="yes"/>
      <point x="65" y="279"/>
      <point x="58" y="234"/>
      <point x="58" y="194" type="curve" smooth="yes"/>
      <point x="58" y="63"/>
      <point x="135" y="-20"/>
      <point x="287" y="-20" type="curve" smooth="yes"/>
      <point x="606" y="-20"/>
      <point x="962" y="463"/>
      <point x="962" y="816" type="curve" smooth="yes"/>
      <point x="962" y="957"/>
      <point x="887" y="1044"/>
      <point x="760" y="1044" type="curve" smooth="yes"/>
      <point x="642.0" y="1044.0"/>
      <point x="494" y="933"/>
      <point x="330" y="689" type="curve"/>
      <point x="342" y="678" type="line"/>
      <point x="590" y="1484" type="line"/>
      <point x="587" y="1484" type="line"/>
      <point x="228" y="1407" type="line"/>
      <point x="229" y="1401" type="line"/>
      <point x="287" y="1363"/>
      <point x="340" y="1328"/>
    </contour>
  </outline>
</glyph>
<glyph name="c" format="2">
  <advance width="788"/>
  <unicode hex="0063"/>
  <anchor x="567.0" y="1024.0" name="top"/>
  <anchor x="561.0" y="0" name="right"/>
  <anchor x="284.0" y="0" name="bottom"/>
  <outline>
    <contour>
      <point x="604" y="1009" type="curve" smooth="yes"/>
      <point x="654" y="1009.0"/>
      <point x="668" y="988.0"/>
      <point x="645" y="900" type="curve" smooth="yes"/>
      <point x="622" y="812"/>
      <point x="646.0" y="784.0"/>
      <point x="711" y="784" type="curve" smooth="yes"/>
      <point x="785" y="784"/>
      <point x="828" y="842"/>
      <point x="828" y="904" type="curve" smooth="yes"/>
      <point x="828" y="982"/>
      <point x="771" y="1044"/>
      <point x="638" y="1044" type="curve" smooth="yes"/>
      <point x="320" y="1044"/>
      <point x="40" y="660"/>
      <point x="40" y="246" type="curve" smooth="yes"/>
      <point x="40" y="73"/>
      <point x="132" y="-20"/>
      <point x="292" y="-20" type="curve" smooth="yes"/>
      <point x="443" y="-20"/>
      <point x="574" y="75"/>
      <point x="699" y="395" type="curve"/>
      <point x="688" y="397" type="line"/>
      <point x="573" y="181"/>
      <point x="457" y="109"/>
      <point x="349" y="109" type="curve" smooth="yes"/>
      <point x="255" y="109"/>
      <point x="209" y="163"/>
      <point x="209" y="305" type="curve" smooth="yes"/>
      <point x="209" y="613"/>
      <point x="383" y="1009"/>
    </contour>
  </outline>
</glyph>
<glyph name="r" format="2">
  <advance width="846"/>
  <unicode hex="0072"/>
  <anchor x="622.0" y="1024.0" name="top"/>
  <anchor x="166.0" y="0" name="bottom"/>
  <outline>
    <contour>
      <point x="362" y="862" type="curve" smooth="yes"/>
      <point x="72" y="0" type="line"/>
      <point x="235" y="0" type="line"/>
      <point x="358" y="365" type="line" smooth="yes"/>
      <point x="463" y="677"/>
      <point x="635" y="912"/>
      <point x="734" y="912" type="curve" smooth="yes"/>
      <point x="753.0" y="912.0"/>
      <point x="760.0" y="902"/>
      <point x="754" y="855" type="curve" smooth="yes"/>
      <point x="748" y="808"/>
      <point x="767" y="786.0"/>
      <point x="820" y="786" type="curve" smooth="yes"/>
      <point x="893" y="786"/>
      <point x="961" y="846"/>
      <point x="961" y="936" type="curve" smooth="yes"/>
      <point x="961" y="998"/>
      <point x="923" y="1044"/>
      <point x="839" y="1044" type="curve" smooth="yes"/>
      <point x="727" y="1044.0"/>
      <point x="616" y="960"/>
      <point x="418" y="563" type="curve"/>
      <point x="423" y="563" type="line"/>
      <point x="567" y="1021" type="line"/>
      <point x="528" y="1037"/>
      <point x="497" y="1044"/>
      <point x="448" y="1044" type="curve" smooth="yes"/>
      <point x="309" y="1044"/>
      <point x="202" y="940"/>
      <point x="64" y="614" type="curve"/>
      <point x="75" y="609" type="line"/>
      <point x="211" y="849"/>
      <point x="301" y="907"/>
      <point x="344" y="907" type="curve" smooth="yes"/>
      <point x="367" y="907"/>
      <point x="370" y="885"/>
    </contour>
  </outline>
</glyph>
<glyph name="uni00B3" format="2">
  <advance width="633"/>
  <unicode hex="00B3"/>
  <outline>
    <contour>
      <point x="361.0" y="1034.0" type="line"/>
      <point x="398.0" y="1042.0" type="line" smooth="yes"/>
      <point x="504.25" y="1063.25"/>
      <point x="556.0" y="1026.0"/>
      <point x="556.0" y="946.0" type="curve" smooth="yes"/>
      <point x="556.0" y="817.0"/>
      <point x="460.0" y="690.0"/>
      <point x="332.0" y="690.0" type="curve" smooth="yes"/>
      <point x="247.0" y="690.0"/>
      <point x="202.0" y="793.0"/>
      <point x="181.0" y="793.0" type="curve" smooth="yes"/>
      <point x="148.0" y="793.0"/>
      <point x="122.0" y="766.0"/>
      <point x="122.0" y="730.0" type="curve" smooth="yes"/>
      <point x="122.0" y="688.0"/>
      <point x="159.0" y="648.0"/>
      <point x="300.0" y="648.0" type="curve" smooth="yes"/>
      <point x="543.0" y="648.0"/>
      <point x="696.0" y="787.0"/>
      <point x="696.0" y="950.0" type="curve" smooth="yes"/>
      <point x="696.0" y="1035.0"/>
      <point x="642.0" y="1103.0"/>
      <point x="528.0" y="1103.0" type="curve"/>
      <point x="513.0" y="1092.0" type="line"/>
      <point x="664.8282043468239" y="1129.113561062557"/>
      <point x="718.0" y="1213.0"/>
      <point x="718.0" y="1303.0" type="curve" smooth="yes"/>
      <point x="718.0" y="1379.0"/>
      <point x="674.0" y="1444.0"/>
      <point x="571.0" y="1444.0" type="curve" smooth="yes"/>
      <point x="435.0" y="1444.0"/>
      <point x="341.0" y="1359.0"/>
      <point x="292.0" y="1222.0" type="curve"/>
      <point x="315.0" y="1214.0" type="line"/>
      <point x="350.0" y="1299.0"/>
      <point x="414.0" y="1343.0"/>
      <point x="492.0" y="1343.0" type="curve" smooth="yes"/>
      <point x="551.0" y="1343.0"/>
      <point x="587.0" y="1308.0"/>
      <point x="587.0" y="1255.0" type="curve" smooth="yes"/>
      <point x="587.0" y="1178.274799017224"/>
      <point x="547.5916870600527" y="1116.9872633245493"/>
      <point x="361.0" y="1066.0" type="curve"/>
    </contour>
  </outline>
</glyph>
<glyph name="aogonek" format="2">
  <advance width="1040"/>
  <unicode hex="0105"/>
  <outline>
    <contour>
      <point x="1002.0" y="323.0" type="curve"/>
      <point x="993.0" y="330.0" type="line"/>
      <point x="842.0" y="152.0"/>
      <point x="731.0" y="100.0"/>
      <point x="678.0" y="118.0" type="curve"/>
      <point x="699.0" y="87.0" type="line"/>
      <point x="1014.0" y="1024.0" type="line"/>
      <point x="851.0" y="1024.0" type="line"/>
      <point x="816.0" y="923.0" type="line"/>
      <point x="651.0" y="446.0" type="line"/>
      <point x="474.0" y="193.0"/>
      <point x="354.0" y="111.0"/>
      <point x="277.0" y="111.0" type="curve" smooth="yes"/>
      <point x="219.0" y="111.0"/>
      <point x="180.0" y="143.0"/>
      <point x="180.0" y="226.0" type="curve" smooth="yes"/>
      <point x="180.0" y="511.0"/>
      <point x="475.0" y="975.0"/>
      <point x="688.0" y="975.0" type="curve" smooth="yes"/>
      <point x="745.0" y="975.0"/>
      <point x="790.0" y="953.0"/>
      <point x="825.0" y="882.0" type="curve"/>
      <point x="834.0" y="908.0" type="line"/>
      <point x="787.0" y="995.0"/>
      <point x="718.0" y="1040.0"/>
      <point x="642.0" y="1040.0" type="curve" smooth="yes"/>
      <point x="353.0" y="1040.0"/>
      <point x="3.0" y="525.0"/>
      <point x="3.0" y="169.0" type="curve" smooth="yes"/>
      <point x="3.0" y="45.0"/>
      <point x="80.0" y="-20.0"/>
      <point x="185.0" y="-20.0" type="curve" smooth="yes"/>
      <point x="296.0" y="-20.0"/>
      <point x="424.0" y="71.0"/>
      <point x="669.0" y="441.0" type="curve"/>
      <point x="658.0" y="441.0" type="line"/>
      <point x="537.0" y="63.0" type="line" smooth="yes"/>
      <point x="520.0" y="11.0"/>
      <point x="547.0" y="-20.0"/>
      <point x="613.0" y="-20.0" type="curve" smooth="yes"/>
      <point x="655.0" y="-20.0"/>
      <point x="703.0" y="-4.0"/>
      <point x="758.0" y="36.0" type="curve"/>
      <point x="751.0" y="46.0" type="line"/>
      <point x="614.0" y="-88.0" type="line" smooth="yes"/>
      <point x="464.0" y="-236.0"/>
      <point x="424.0" y="-287.0"/>
      <point x="424.0" y="-365.0" type="curve" smooth="yes"/>
      <point x="424.0" y="-424.0"/>
      <point x="464.0" y="-465.0"/>
      <point x="551.0" y="-465.0" type="curve" smooth="yes"/>
      <point x="619.0" y="-465.0"/>
      <point x="672.0" y="-429.0"/>
      <point x="745.0" y="-328.0" type="curve"/>
      <point x="737.0" y="-319.0" type="line"/>
      <point x="698.0" y="-355.0"/>
      <point x="664.0" y="-370.0"/>
      <point x="624.0" y="-370.0" type="curve" smooth="yes"/>
      <point x="576.0" y="-370.0"/>
      <point x="546.0" y="-352.0"/>
      <point x="546.0" y="-306.0" type="curve" smooth="yes"/>
      <point x="546.0" y="-261.0"/>
      <point x="563.0" y="-191.0"/>
      <point x="691.0" y="-51.0" type="curve" smooth="yes"/>
      <point x="863.0" y="136.0" type="line" smooth="yes"/>
      <point x="917.0" y="194.0"/>
      <point x="958.0" y="253.0"/>
    </contour>
  </outline>
</glyph>
<glyph name="dcroat" format="2">
  <advance width="1029"/>
  <unicode hex="0111"/>
  <outline>
    <contour>
      <point x="840.0" y="843.0" type="curve"/>
      <point x="847.0" y="877.0" type="line"/>
      <point x="800.0" y="985.0"/>
      <point x="726.0" y="1040.0"/>
      <point x="642.0" y="1040.0" type="curve" smooth="yes"/>
      <point x="333.0" y="1040.0"/>
      <point x="1.0" y="497.0"/>
      <point x="1.0" y="169.0" type="curve" smooth="yes"/>
      <point x="1.0" y="45.0"/>
      <point x="78.0" y="-20.0"/>
      <point x="183.0" y="-20.0" type="curve" smooth="yes"/>
      <point x="278.0" y="-20.0"/>
      <point x="410.0" y="48.0"/>
      <point x="667.0" y="441.0" type="curve"/>
      <point x="656.0" y="441.0" type="line"/>
      <point x="544.0" y="92.0" type="line" smooth="yes"/>
      <point x="518.0" y="11.0"/>
      <point x="539.0" y="-20.0"/>
      <point x="611.0" y="-20.0" type="curve" smooth="yes"/>
      <point x="709.0" y="-20.0"/>
      <point x="841.0" y="80.0"/>
      <point x="1013.0" y="323.0" type="curve"/>
      <point x="1004.0" y="330.0" type="line"/>
      <point x="834.0" y="148.0"/>
      <point x="722.0" y="101.0"/>
      <point x="671.0" y="117.0" type="curve"/>
      <point x="697.0" y="87.0" type="line"/>
      <point x="1139.0" y="1484.0" type="line"/>
      <point x="1136.0" y="1484.0" type="line"/>
      <point x="777.0" y="1407.0" type="line"/>
      <point x="776.0" y="1401.0" type="line"/>
      <point x="833.0" y="1364.0066225165563"/>
      <point x="891.0" y="1326.364238410596"/>
      <point x="927.0" y="1303.0" type="curve"/>
      <point x="649.0" y="446.0" type="line"/>
      <point x="472.0" y="193.0"/>
      <point x="352.0" y="111.0"/>
      <point x="275.0" y="111.0" type="curve" smooth="yes"/>
      <point x="219.0" y="111.0"/>
      <point x="178.0" y="141.0"/>
      <point x="178.0" y="226.0" type="curve" smooth="yes"/>
      <point x="178.0" y="472.0"/>
      <point x="444.0" y="975.0"/>
      <point x="686.0" y="975.0" type="curve" smooth="yes"/>
      <point x="752.0" y="975.0"/>
      <point x="802.0" y="945.0"/>
    </contour>
    <contour>
      <point x="602.0" y="1175.0" type="line"/>
      <point x="1235.0" y="1175.0" type="line"/>
      <point x="1255.0" y="1239.0" type="line"/>
      <point x="622.0" y="1239.0" type="line"/>
    </contour>
  </outline>
</glyph>
<glyph name="OE" format="2">
  <advance width="2105"/>
  <unicode hex="0152"/>
  <outline>
    <contour>
      <point x="1337.0" y="1430.0" type="line"/>
      <point x="902.0" y="0.0" type="line"/>
      <point x="1097.0" y="0.0" type="line"/>
      <point x="1532.0" y="1430.0" type="line"/>
    </contour>
    <contour>
      <point x="1117.0" y="1430.0" type="line" smooth="yes"/>
      <point x="493.0" y="1430.0"/>
      <point x="140.0" y="1008.0"/>
      <point x="140.0" y="535.0" type="curve" smooth="yes"/>
      <point x="140.0" y="185.0"/>
      <point x="409.0" y="0.0"/>
      <point x="784.0" y="0.0" type="curve"/>
      <point x="1652.0" y="0.0" type="line"/>
      <point x="1779.0" y="-54.0" type="line"/>
      <point x="1786.0" y="-54.0" type="line"/>
      <point x="2016.0" y="369.0" type="line"/>
      <point x="1996.0" y="384.0" type="line"/>
      <point x="1636.0" y="38.0" type="line"/>
      <point x="1817.0" y="56.0" type="line"/>
      <point x="799.0" y="56.0" type="line" smooth="yes"/>
      <point x="496.0" y="56.0"/>
      <point x="339.0" y="218.0"/>
      <point x="339.0" y="489.0" type="curve" smooth="yes"/>
      <point x="339.0" y="1037.0"/>
      <point x="681.0" y="1374.0"/>
      <point x="1093.0" y="1374.0" type="curve" smooth="yes"/>
      <point x="2190.0" y="1374.0" type="line"/>
      <point x="2065.0" y="1394.0" type="line"/>
      <point x="2132.0" y="1031.0" type="line"/>
      <point x="2156.0" y="1031.0" type="line"/>
      <point x="2230.0" y="1484.0" type="line"/>
      <point x="2223.0" y="1484.0" type="line"/>
      <point x="2076.0" y="1430.0" type="line"/>
    </contour>
    <contour>
      <point x="1685.0" y="455.0" type="line"/>
      <point x="1742.0" y="746.0" type="line"/>
      <point x="1864.0" y="1039.0" type="line"/>
      <point x="1843.0" y="1039.0" type="line"/>
      <point x="1660.0" y="784.0" type="line"/>
      <point x="1196.0" y="756.0" type="line"/>
      <point x="1189.0" y="737.0" type="line"/>
      <point x="1645.0" y="713.0" type="line"/>
      <point x="1664.0" y="455.0" type="line"/>
    </contour>
  </outline>
</glyph>
<glyph name="scedilla" format="2">
  <advance width="691"/>
  <unicode hex="015F"/>
  <outline>
    <contour>
      <point x="48" y="-465" type="curve" smooth="yes"/>
      <point x="191" y="-465"/>
      <point x="299" y="-372"/>
      <point x="299" y="-270" type="curve" smooth="yes"/>
      <point x="299" y="-204"/>
      <point x="264" y="-152"/>
      <point x="138" y="-108" type="curve"/>
      <point x="117" y="-163" type="line"/>
      <point x="279" y="15" type="line"/>
      <point x="238" y="15" type="line"/>
      <point x="49" y="-192" type="line"/>
      <point x="49" y="-196" type="line"/>
      <point x="179" y="-233"/>
      <point x="215" y="-278"/>
      <point x="215" y="-327" type="curve" smooth="yes"/>
      <point x="215" y="-387"/>
      <point x="164" y="-426"/>
      <point x="98" y="-426" type="curve" smooth="yes"/>
      <point x="24" y="-426"/>
      <point x="-1" y="-348"/>
      <point x="-16" y="-348" type="curve" smooth="yes"/>
      <point x="-47" y="-348"/>
      <point x="-67" y="-370"/>
      <point x="-67" y="-402" type="curve" smooth="yes"/>
      <point x="-67" y="-436"/>
      <point x="-40" y="-465"/>
    </contour>
    <contour>
      <point x="136" y="221" type="curve"/>
      <point x="20" y="221"/>
      <point x="-29" y="188"/>
      <point x="-29" y="110" type="curve" smooth="yes"/>
      <point x="-29" y="31"/>
      <point x="22" y="-20"/>
      <point x="168" y="-20" type="curve" smooth="yes"/>
      <point x="386" y="-20"/>
      <point x="546" y="122"/>
      <point x="546" y="322" type="curve" smooth="yes"/>
      <point x="546" y="400"/>
      <point x="519" y="474"/>
      <point x="429" y="599" type="curve" smooth="yes"/>
      <point x="339" y="724"/>
      <point x="316" y="782"/>
      <point x="316" y="843" type="curve" smooth="yes"/>
      <point x="316" y="947"/>
      <point x="387" y="1003"/>
      <point x="497" y="1003" type="curve" smooth="yes"/>
      <point x="535" y="1003"/>
      <point x="557" y="998"/>
      <point x="573" y="979" type="curve" smooth="yes"/>
      <point x="589.0" y="960.0"/>
      <point x="596" y="914"/>
      <point x="591" y="820" type="curve"/>
      <point x="706" y="820"/>
      <point x="744" y="856"/>
      <point x="744" y="916" type="curve" smooth="yes"/>
      <point x="744" y="993"/>
      <point x="695" y="1044"/>
      <point x="552" y="1044" type="curve" smooth="yes"/>
      <point x="346" y="1044"/>
      <point x="197" y="904"/>
      <point x="197" y="730" type="curve" smooth="yes"/>
      <point x="197" y="653"/>
      <point x="222" y="573"/>
      <point x="313" y="455" type="curve" smooth="yes"/>
      <point x="404" y="337"/>
      <point x="437" y="267"/>
      <point x="437" y="203" type="curve" smooth="yes"/>
      <point x="437" y="94"/>
      <point x="363" y="32"/>
      <point x="238" y="32" type="curve" smooth="yes"/>
      <point x="209" y="32"/>
      <point x="186" y="35"/>
      <point x="168" y="58" type="curve" smooth="yes"/>
      <point x="150" y="81"/>
      <point x="140" y="130"/>
    </contour>
  </outline>
</glyph>
<glyph name="uni018F" format="2">
  <advance width="1400"/>
  <unicode hex="018F"/>
  <outline>
    <contour>
      <point x="128.0" y="546.0" type="line"/>
      <point x="120.0" y="494.0"/>
      <point x="116.0" y="445.0"/>
      <point x="116.0" y="399.0" type="curve" smooth="yes"/>
      <point x="116.0" y="147.0"/>
      <point x="253.0" y="-20.0"/>
      <point x="598.0" y="-20.0" type="curve" smooth="yes"/>
      <point x="971.0" y="-20.0"/>
      <point x="1381.0" y="364.0"/>
      <point x="1381.0" y="925.0" type="curve" smooth="yes"/>
      <point x="1381.0" y="1270.0"/>
      <point x="1189.0" y="1450.0"/>
      <point x="862.0" y="1450.0" type="curve" smooth="yes"/>
      <point x="635.0" y="1450.0"/>
      <point x="442.0" y="1342.0"/>
      <point x="203.0" y="1062.0" type="curve"/>
      <point x="220.0" y="1042.0" type="line"/>
      <point x="418.0" y="1237.0"/>
      <point x="576.0" y="1321.0"/>
      <point x="789.0" y="1321.0" type="curve" smooth="yes"/>
      <point x="1053.0" y="1321.0"/>
      <point x="1210.0" y="1159.0"/>
      <point x="1210.0" y="846.0" type="curve" smooth="yes"/>
      <point x="1210.0" y="367.0"/>
      <point x="934.0" y="27.0"/>
      <point x="605.0" y="27.0" type="curve" smooth="yes"/>
      <point x="409.0" y="27.0"/>
      <point x="295.0" y="127.0"/>
      <point x="295.0" y="374.0" type="curve" smooth="yes"/>
      <point x="295.0" y="421.0"/>
      <point x="299.0" y="474.0"/>
      <point x="308.0" y="533.0" type="curve"/>
      <point x="229.0" y="490.0" type="line"/>
      <point x="1176.0" y="490.0" type="line"/>
      <point x="1194.0" y="546.0" type="line"/>
    </contour>
  </outline>
</glyph>
<glyph name="uni0307" format="2">
  <unicode hex="0307"/>
  <anchor x="157" y="1024" name="_top"/>
  <anchor x="264" y="1376" name="top"/>
  <anchor x="241" y="1301" name="_mid"/>
  <outline>
    <contour>
      <point x="222.0" y="1194.0" type="curve" smooth="yes"/>
      <point x="290.0" y="1194.0"/>
      <point x="350.0" y="1251.0"/>
      <point x="350.0" y="1322.0" type="curve" smooth="yes"/>
      <point x="350.0" y="1368.0"/>
      <point x="319.0" y="1408.0"/>
      <point x="261.0" y="1408.0" type="curve" smooth="yes"/>
      <point x="192.0" y="1408.0"/>
      <point x="132.0" y="1351.0"/>
      <point x="132.0" y="1280.0" type="curve" smooth="yes"/>
      <point x="132.0" y="1234.0"/>
      <point x="163.0" y="1194.0"/>
    </contour>
  </outline>
</glyph>
<glyph name="uni0308" format="2">
  <unicode hex="0308"/>
  <anchor x="157" y="1024" name="_top"/>
  <anchor x="264" y="1376" name="top"/>
  <outline>
    <contour>
      <point x="31.0" y="1199.0" type="curve" smooth="yes"/>
      <point x="97.0" y="1199.0"/>
      <point x="153.0" y="1254.0"/>
      <point x="153.0" y="1322.0" type="curve" smooth="yes"/>
      <point x="153.0" y="1366.0"/>
      <point x="123.0" y="1404.0"/>
      <point x="68.0" y="1404.0" type="curve" smooth="yes"/>
      <point x="3.0" y="1404.0"/>
      <point x="-54.0" y="1349.0"/>
      <point x="-54.0" y="1281.0" type="curve" smooth="yes"/>
      <point x="-54.0" y="1237.0"/>
      <point x="-24.0" y="1199.0"/>
    </contour>
    <contour>
      <point x="414.0" y="1199.0" type="curve" smooth="yes"/>
      <point x="480.0" y="1199.0"/>
      <point x="536.0" y="1254.0"/>
      <point x="536.0" y="1322.0" type="curve" smooth="yes"/>
      <point x="536.0" y="1366.0"/>
      <point x="506.0" y="1404.0"/>
      <point x="451.0" y="1404.0" type="curve" smooth="yes"/>
      <point x="386.0" y="1404.0"/>
      <point x="329.0" y="1349.0"/>
      <point x="329.0" y="1281.0" type="curve" smooth="yes"/>
      <point x="329.0" y="1237.0"/>
      <point x="359.0" y="1199.0"/>
    </contour>
  </outline>
</glyph>
<glyph name="uni030B" format="2">
  <unicode hex="030B"/>
  <anchor x="157" y="1024" name="_top"/>
  <anchor x="291" y="1464" name="top"/>
  <outline>
    <contour>
      <point x="264.0" y="1138.0" type="line"/>
      <point x="306.0" y="1138.0" type="line"/>
      <point x="736.0" y="1456.0" type="line"/>
      <point x="739.0" y="1464.0" type="line"/>
      <point x="561.0" y="1464.0" type="line"/>
    </contour>
    <contour>
      <point x="31.0" y="1138.0" type="line"/>
      <point x="66.0" y="1138.0" type="line"/>
      <point x="386.0" y="1456.0" type="line"/>
      <point x="388.0" y="1464.0" type="line"/>
      <point x="227.0" y="1464.0" type="line"/>
    </contour>
  </outline>
</glyph>
<glyph name="uni030C" format="2">
  <unicode hex="030C"/>
  <anchor x="157" y="1024" name="_top"/>
  <anchor x="291" y="1464" name="top"/>
  <outline>
    <contour>
      <point x="590.0" y="1464.0" type="line"/>
      <point x="545.0" y="1464.0" type="line"/>
      <point x="156.0" y="1218.0" type="line"/>
      <point x="235.0" y="1218.0" type="line"/>
      <point x="27.0" y="1464.0" type="line"/>
      <point x="-9.0" y="1464.0" type="line"/>
      <point x="128.0" y="1138.0" type="line"/>
      <point x="257.0" y="1138.0" type="line"/>
    </contour>
  </outline>
</glyph>
<glyph name="endash" format="2">
  <advance width="939"/>
  <unicode hex="2013"/>
  <outline>
    <contour>
      <point x="93.0" y="556.0" type="line"/>
      <point x="72.0" y="488.0" type="line"/>
      <point x="851.0" y="488.0" type="line"/>
      <point x="872.0" y="556.0" type="line"/>
    </contour>
  </outline>
</glyph>
<glyph name="quotesinglbase" format="2">
  <advance width="445"/>
  <unicode hex="201A"/>
  <outline>
    <contour>
      <point x="-153.0" y="-259.0" type="curve"/>
      <point x="-141.0" y="-289.0" type="line"/>
      <point x="120.0" y="-177.0"/>
      <point x="248.0" y="-29.0"/>
      <point x="248.0" y="112.0" type="curve" smooth="yes"/>
      <point x="248.0" y="189.0"/>
      <point x="205.0" y="230.0"/>
      <point x="137.0" y="230.0" type="curve" smooth="yes"/>
      <point x="44.0" y="230.0"/>
      <point x="-12.0" y="159.0"/>
      <point x="-12.0" y="102.0" type="curve" smooth="yes"/>
      <point x="-12.0" y="86.0"/>
      <point x="85.0" y="62.0"/>
      <point x="85.0" y="-20.0" type="curve" smooth="yes"/>
      <point x="85.0" y="-89.0"/>
      <point x="20.0" y="-178.0"/>
    </contour>
  </outline>
</glyph>
<glyph name="fi" format="2">
  <advance width="1055"/>
  <unicode hex="FB01"/>
  <outline>
    <contour>
      <point x="133.0" y="972.0" type="line"/>
      <point x="891.0" y="972.0" type="line"/>
      <point x="870.0" y="1003.0" type="line"/>
      <point x="530.0" y="92.0" type="line" smooth="yes"/>
      <point x="500.0" y="11.0"/>
      <point x="524.0" y="-20.0"/>
      <point x="603.0" y="-20.0" type="curve" smooth="yes"/>
      <point x="702.0" y="-20.0"/>
      <point x="834.0" y="80.0"/>
      <point x="1006.0" y="323.0" type="curve"/>
      <point x="997.0" y="330.0" type="line"/>
      <point x="793.0" y="123.0"/>
      <point x="707.0" y="97.0"/>
      <point x="664.0" y="124.0" type="curve"/>
      <point x="688.0" y="88.0" type="line"/>
      <point x="1045.0" y="1044.0" type="line"/>
      <point x="1031.0" y="1044.0" type="line"/>
      <point x="987.0" y="1031.0"/>
      <point x="931.0" y="1024.0"/>
      <point x="861.0" y="1024.0" type="curve" smooth="yes"/>
      <point x="142.0" y="1024.0" type="line"/>
    </contour>
    <contour>
      <point x="304" y="237" type="curve" smooth="yes"/>
      <point x="509" y="1056" type="line" smooth="yes"/>
      <point x="580" y="1338"/>
      <point x="703" y="1444"/>
      <point x="820" y="1444" type="curve" smooth="yes"/>
      <point x="878" y="1444.0"/>
      <point x="899.0" y="1417.0"/>
      <point x="888" y="1339" type="curve" smooth="yes"/>
      <point x="877" y="1261"/>
      <point x="888" y="1233.0"/>
      <point x="937" y="1233" type="curve" smooth="yes"/>
      <point x="1026" y="1233"/>
      <point x="1092" y="1286"/>
      <point x="1092" y="1367" type="curve" smooth="yes"/>
      <point x="1092" y="1433"/>
      <point x="1036" y="1484"/>
      <point x="900" y="1484" type="curve" smooth="yes"/>
      <point x="649" y="1484"/>
      <point x="406" y="1320"/>
      <point x="329" y="982" type="curve" smooth="yes"/>
      <point x="124" y="81" type="line" smooth="yes"/>
      <point x="35" y="-309"/>
      <point x="-64" y="-418"/>
      <point x="-157" y="-418" type="curve" smooth="yes"/>
      <point x="-192" y="-418"/>
      <point x="-202" y="-404"/>
      <point x="-186" y="-331" type="curve" smooth="yes"/>
      <point x="-170" y="-258"/>
      <point x="-187" y="-233"/>
      <point x="-240" y="-233" type="curve" smooth="yes"/>
      <point x="-303" y="-233"/>
      <point x="-340" y="-284"/>
      <point x="-340" y="-342" type="curve" smooth="yes"/>
      <point x="-340" y="-416"/>
      <point x="-287" y="-465"/>
      <point x="-195" y="-465" type="curve" smooth="yes"/>
      <point x="-19" y="-465"/>
      <point x="176" y="-276"/>
    </contour>
  </outline>
</glyph>
<glyph name="three.lf" format="2">
  <advance width="1050"/>
  <outline>
    <contour>
      <point x="350.0" y="33.0" type="curve" smooth="yes"/>
      <point x="184.0" y="33.0"/>
      <point x="119.0" y="198.0"/>
      <point x="55.0" y="198.0" type="curve" smooth="yes"/>
      <point x="16.0" y="198.0"/>
      <point x="-28.0" y="166.0"/>
      <point x="-28.0" y="108.0" type="curve" smooth="yes"/>
      <point x="-28.0" y="42.0"/>
      <point x="35.0" y="-20.0"/>
      <point x="249.0" y="-20.0" type="curve" smooth="yes"/>
      <point x="654.0" y="-20.0"/>
      <point x="947.0" y="222.0"/>
      <point x="947.0" y="509.0" type="curve" smooth="yes"/>
      <point x="947.0" y="664.0"/>
      <point x="846.0" y="808.0"/>
      <point x="621.0" y="813.0" type="curve"/>
      <point x="615.0" y="804.0" type="line"/>
      <point x="925.0" y="883.0"/>
      <point x="1023.0" y="1021.0"/>
      <point x="1023.0" y="1183.0" type="curve" smooth="yes"/>
      <point x="1023.0" y="1330.0"/>
      <point x="920.0" y="1450.0"/>
      <point x="701.0" y="1450.0" type="curve" smooth="yes"/>
      <point x="493.0" y="1450.0"/>
      <point x="334.0" y="1318.0"/>
      <point x="259.0" y="1054.0" type="curve"/>
      <point x="280.0" y="1049.0" type="line"/>
      <point x="349.0" y="1248.0"/>
      <point x="476.0" y="1323.0"/>
      <point x="624.0" y="1323.0" type="curve" smooth="yes"/>
      <point x="763.0" y="1323.0"/>
      <point x="845.0" y="1242.0"/>
      <point x="845.0" y="1127.0" type="curve" smooth="yes"/>
      <point x="845.0" y="965.0"/>
      <point x="744.0" y="840.0"/>
      <point x="422.0" y="778.0" type="curve"/>
      <point x="423.0" y="740.0" type="line"/>
      <point x="454.0" y="745.0" type="line" smooth="yes"/>
      <point x="659.0" y="778.0"/>
      <point x="751.0" y="696.0"/>
      <point x="751.0" y="507.0" type="curve" smooth="yes"/>
      <point x="751.0" y="257.0"/>
      <point x="550.0" y="33.0"/>
    </contour>
  </outline>
</glyph>
<glyph name="uni0302_acutecomb.case" format="2">
  <anchor x="281" y="1430" name="_UCtop"/>
  <outline>
    <contour>
      <point x="612.0" y="1741.0" type="line"/>
      <point x="644.0" y="1741.0" type="line"/>
      <point x="1008.0" y="1995.0" type="line"/>
      <point x="1012.0" y="2008.0" type="line"/>
      <point x="830.0" y="2008.0" type="line"/>
    </contour>
    <contour>
      <point x="17.0" y="1544.0" type="line"/>
      <point x="59.0" y="1544.0" type="line"/>
      <point x="448.0" y="1790.0" type="line"/>
      <point x="369.0" y="1790.0" type="line"/>
      <point x="577.0" y="1544.0" type="line"/>
      <point x="616.0" y="1544.0" type="line"/>
      <point x="479.0" y="1870.0" type="line"/>
      <point x="350.0" y="1870.0" type="line"/>
    </contour>
  </outline>
</glyph>
<glyph name="uni0302_acutecomb" format="2">
  <anchor x="157" y="1024" name="_top"/>
  <outline>
    <contour>
      <point x="488.0" y="1335.0" type="line"/>
      <point x="520.0" y="1335.0" type="line"/>
      <point x="884.0" y="1589.0" type="line"/>
      <point x="888.0" y="1602.0" type="line"/>
      <point x="706.0" y="1602.0" type="line"/>
    </contour>
    <contour>
      <point x="-107.0" y="1138.0" type="line"/>
      <point x="-62.0" y="1138.0" type="line"/>
      <point x="327.0" y="1384.0" type="line"/>
      <point x="248.0" y="1384.0" type="line"/>
      <point x="456.0" y="1138.0" type="line"/>
      <point x="492.0" y="1138.0" type="line"/>
      <point x="355.0" y="1464.0" type="line"/>
      <point x="226.0" y="1464.0" type="line"/>
    </contour>
  </outline>
</glyph>
<glyph name="uni0302_tildecomb.case" format="2">
  <anchor x="281" y="1430" name="_UCtop"/>
  <outline>
    <contour>
      <point x="417.0" y="1680.0" type="line"/>
      <point x="328.0" y="1680.0" type="line"/>
      <point x="537.0" y="1503.0" type="line"/>
      <point x="578.0" y="1503.0" type="line"/>
      <point x="440.0" y="1748.0" type="line"/>
      <point x="316.0" y="1748.0" type="line"/>
      <point x="31.0" y="1503.0" type="line"/>
      <point x="81.0" y="1503.0" type="line"/>
    </contour>
    <contour>
      <point x="722.0" y="2004.0" type="curve"/>
      <point x="687.0" y="2004.0" type="line"/>
      <point x="632.0" y="1918.0"/>
      <point x="598.0" y="1890.0"/>
      <point x="551.0" y="1890.0" type="curve" smooth="yes"/>
      <point x="484.0" y="1890.0"/>
      <point x="434.0" y="2010.0"/>
      <point x="346.0" y="2010.0" type="curve" smooth="yes"/>
      <point x="284.0" y="2010.0"/>
      <point x="232.0" y="1971.0"/>
      <point x="128.0" y="1796.0" type="curve"/>
      <point x="163.0" y="1796.0" type="line"/>
      <point x="217.0" y="1881.0"/>
      <point x="251.0" y="1910.0"/>
      <point x="298.0" y="1910.0" type="curve" smooth="yes"/>
      <point x="369.0" y="1910.0"/>
      <point x="415.0" y="1790.0"/>
      <point x="501.0" y="1790.0" type="curve" smooth="yes"/>
      <point x="567.0" y="1790.0"/>
      <point x="619.0" y="1828.0"/>
    </contour>
  </outline>
</glyph>
<glyph name="uni0304.case" format="2">
  <anchor x="281" y="1430" name="_UCtop"/>
  <anchor x="415" y="1870" name="UCtop"/>
  <outline>
    <contour>
      <point x="82.0" y="1670.0" type="line"/>
      <point x="626.0" y="1670.0" type="line"/>
      <point x="649.0" y="1745.0" type="line"/>
      <point x="105.0" y="1745.0" type="line"/>
    </contour>
  </outline>
</glyph>
<glyph name="uni0306_tildecomb" format="2">
  <anchor x="157" y="1024" name="_top"/>
  <outline>
    <contour>
      <point x="207.0" y="1197.0" type="curve" smooth="yes"/>
      <point x="86.0" y="1197.0"/>
      <point x="26.0" y="1233.0"/>
      <point x="21.0" y="1336.0" type="curve"/>
      <point x="-12.0" y="1336.0" type="line"/>
      <point x="-11.0" y="1138.0"/>
      <point x="43.0" y="1087.0"/>
      <point x="185.0" y="1087.0" type="curve" smooth="yes"/>
      <point x="312.0" y="1087.0"/>
      <point x="392.0" y="1133.0"/>
      <point x="516.0" y="1336.0" type="curve"/>
      <point x="479.0" y="1336.0" type="line"/>
      <point x="410.0" y="1232.0"/>
      <point x="329.0" y="1197.0"/>
    </contour>
    <contour>
      <point x="595.0" y="1598.0" type="curve"/>
      <point x="560.0" y="1598.0" type="line"/>
      <point x="505.0" y="1512.0"/>
      <point x="471.0" y="1484.0"/>
      <point x="424.0" y="1484.0" type="curve" smooth="yes"/>
      <point x="357.0" y="1484.0"/>
      <point x="307.0" y="1604.0"/>
      <point x="219.0" y="1604.0" type="curve" smooth="yes"/>
      <point x="157.0" y="1604.0"/>
      <point x="105.0" y="1565.0"/>
      <point x="1.0" y="1390.0" type="curve"/>
      <point x="36.0" y="1390.0" type="line"/>
      <point x="90.0" y="1475.0"/>
      <point x="124.0" y="1504.0"/>
      <point x="171.0" y="1504.0" type="curve" smooth="yes"/>
      <point x="242.0" y="1504.0"/>
      <point x="288.0" y="1384.0"/>
      <point x="374.0" y="1384.0" type="curve" smooth="yes"/>
      <point x="440.0" y="1384.0"/>
      <point x="492.0" y="1422.0"/>
    </contour>
  </outline>
</glyph>
